<?xml version="1.0" standalone="no"?><!DOCTYPE svg PUBLIC "-//W3C//DTD SVG 1.1//EN" "http://www.w3.org/Graphics/SVG/1.1/DTD/svg11.dtd"><svg width="100%" height="100%" viewBox="0 0 1247 419" version="1.1" xmlns="http://www.w3.org/2000/svg" xmlns:xlink="http://www.w3.org/1999/xlink" xml:space="preserve" style="fill-rule:evenodd;clip-rule:evenodd;stroke-linecap:round;stroke-linejoin:round;stroke-miterlimit:1.41421;"><g id="Clipboard"><circle cx="623" cy="209" r="200.222" style="fill:none;stroke-width:2.67px;stroke:#5bc0de;"/><clipPath id="tag1"><path d="M695.883,90.7544c12.4476,0 22.5384,10.0908 22.5384,22.5384l0,191.414c0,12.4476 -10.0908,22.5384 -22.5384,22.5384l-145.766,0c-12.4476,0 -22.5384,-10.0908 -22.5384,-22.5384l0,-191.414c0,-12.4476 10.0908,-22.5384 22.5384,-22.5384l57.7666,0l-32.2767,5.24518c-1.07957,0 -1.95474,0.875168 -1.95474,1.95474l0,13.3838c0,1.07957 0.875168,1.95474 1.95474,1.95474l94.7858,0c1.07957,0 1.95474,-0.875168 1.95474,-1.95474l0,-13.3838c0,-1.07957 -0.875168,-1.95474 -1.95474,-1.95474l-31.9284,-5.24518l57.4184,0Z"/></clipPath><g clip-path="url(#tag1)"><rect x="549.211" y="103.566" width="147.578" height="197.852" style="fill:none;stroke-width:2.67px;stroke-linecap:butt;stroke:#5bc0de;"/></g><path d="M695.883,90.7544c12.4476,0 22.5384,10.0908 22.5384,22.5384l0,191.414c0,12.4476 -10.0908,22.5384 -22.5384,22.5384l-145.766,0c-12.4476,0 -22.5384,-10.0908 -22.5384,-22.5384l0,-191.414c0,-12.4476 10.0908,-22.5384 22.5384,-22.5384l57.7666,0l-32.2767,5.24518c-1.07957,0 -1.95474,0.875168 -1.95474,1.95474l0,13.3838c0,1.07957 0.875168,1.95474 1.95474,1.95474l94.7858,0c1.07957,0 1.95474,-0.875168 1.95474,-1.95474l0,-13.3838c0,-1.07957 -0.875168,-1.95474 -1.95474,-1.95474l-31.9284,-5.24518l57.4184,0Z" style="fill:none;stroke-width:2.67px;stroke-linecap:butt;stroke:#5bc0de;"/><clipPath id="tag2"><path d="M607.836,90.249c0.677843,-9.63123 5.22642,-24.8901 14.8609,-25.2462c9.96108,-0.368176 14.8238,16.6943 16.1117,25.5664"/></clipPath><g clip-path="url(#tag2)"><circle cx="623" cy="81.1332" r="5.66309" style="fill:none;stroke-width:2.67px;stroke-linecap:butt;stroke:#5bc0de;"/></g><path d="M607.836,90.249c0.677843,-9.63123 5.22642,-24.8901 14.8609,-25.2462c9.96108,-0.368176 14.8238,16.6943 16.1117,25.5664" style="fill:none;stroke-width:2.67px;stroke:#5bc0de;"/><text id="Title" x="31.68px" y="284.096px" style="font-family:Helvetica Neue;font-size:192px;font-weight:100;fill:#454545;">M<tspan x="233.28px 395.52px 571.776px 648.192px 792.384px 947.328px 1116.48px " y="284.096px 284.096px 284.096px 284.096px 284.096px 284.096px 284.096px ">ANIFEST</tspan></text></g></svg>