<?xml version="1.0" standalone="no"?>
<!DOCTYPE svg PUBLIC "-//W3C//DTD SVG 1.1//EN" "http://www.w3.org/Graphics/SVG/1.1/DTD/svg11.dtd">
<svg width="100%" height="100%" viewBox="0 0 1280 800" version="1.1" xmlns="http://www.w3.org/2000/svg" xmlns:xlink="http://www.w3.org/1999/xlink" xml:space="preserve" style="fill-rule:evenodd;clip-rule:evenodd;stroke-linecap:round;stroke-linejoin:round;stroke-miterlimit:1.41421;">
    <g id="Clipboard">
        <circle cx="640" cy="400" r="200.222" style="fill:none;stroke-width:2.67px;stroke:rgb(91,192,222);"/>
        <clipPath id="tag1">
            <path d="M712.883,281.754C725.33,281.754 735.421,291.845 735.421,304.293L735.421,495.707C735.421,508.155 725.33,518.246 712.883,518.246L567.117,518.246C554.67,518.246 544.579,508.155 544.579,495.707L544.579,304.293C544.579,291.845 554.67,281.754 567.117,281.754L624.884,281.754L592.607,287C591.528,287 590.652,287.875 590.652,288.954L590.652,302.338C590.652,303.418 591.528,304.293 592.607,304.293L687.393,304.293C688.472,304.293 689.348,303.418 689.348,302.338L689.348,288.954C689.348,287.875 688.472,287 687.393,287L655.464,281.754L712.883,281.754Z"/>
        </clipPath>
        <g clip-path="url(#tag1)">
            <rect x="566.211" y="294.566" width="147.578" height="197.852" style="fill:none;stroke-width:2.67px;stroke-linecap:butt;stroke:rgb(91,192,222);"/>
        </g>
        <path d="M712.883,281.754C725.33,281.754 735.421,291.845 735.421,304.293L735.421,495.707C735.421,508.155 725.33,518.246 712.883,518.246L567.117,518.246C554.67,518.246 544.579,508.155 544.579,495.707L544.579,304.293C544.579,291.845 554.67,281.754 567.117,281.754L624.884,281.754L592.607,287C591.528,287 590.652,287.875 590.652,288.954L590.652,302.338C590.652,303.418 591.528,304.293 592.607,304.293L687.393,304.293C688.472,304.293 689.348,303.418 689.348,302.338L689.348,288.954C689.348,287.875 688.472,287 687.393,287L655.464,281.754L712.883,281.754Z" style="fill:none;stroke-width:2.67px;stroke-linecap:butt;stroke:rgb(91,192,222);"/>
        <circle cx="640" cy="272.133" r="5.66309" style="fill:none;stroke-width:2.67px;stroke-linecap:butt;stroke:rgb(91,192,222);"/>
        <path d="M624.836,281.249C625.514,271.618 630.062,256.359 639.697,256.003C649.658,255.635 654.521,272.697 655.809,281.569" style="fill:none;stroke-width:2.67px;stroke:rgb(91,192,222);"/>
    </g>
    <g id="Title">
        <path d="M181.736,338.008L123.752,470.104L123.368,470.104L65.384,338.008L59.048,338.008L59.048,475.096L62.888,475.096L62.888,342.808L63.272,342.808L121.448,475.096L125.672,475.096L183.848,342.808L184.232,342.808L184.232,475.096L188.072,475.096L188.072,338.008L181.736,338.008Z" style="fill:white;fill-rule:nonzero;"/>
        <path d="M270.632,429.976L340.52,429.976L358.568,475.096L362.792,475.096L308.648,338.008L303.656,338.008L248.168,475.096L252.392,475.096L270.632,429.976ZM338.984,426.136L272.168,426.136L305.96,341.848L306.344,341.848L338.984,426.136Z" style="fill:white;fill-rule:nonzero;"/>
        <path d="M422.888,338.008L422.888,475.096L426.728,475.096L426.728,342.808L427.112,342.808L520.808,475.096L526.568,475.096L526.568,338.008L522.728,338.008L522.728,470.296L522.344,470.296L428.648,338.008L422.888,338.008Z" style="fill:white;fill-rule:nonzero;"/>
        <rect x="599.144" y="338.008" width="3.84" height="137.088" style="fill:white;fill-rule:nonzero;"/>
        <path d="M679.4,401.752L679.4,341.848L760.04,341.848L760.04,338.008L675.56,338.008L675.56,475.096L679.4,475.096L679.4,405.592L752.36,405.592L752.36,401.752L679.4,401.752Z" style="fill:white;fill-rule:nonzero;"/>
        <path d="M823.592,471.256L823.592,405.592L905.576,405.592L905.576,401.752L823.592,401.752L823.592,341.848L910.76,341.848L910.76,338.008L819.752,338.008L819.752,475.096L911.528,475.096L911.528,471.256L823.592,471.256Z" style="fill:white;fill-rule:nonzero;"/>
        <path d="M1066.28,376.408L1070.12,376.408C1069.74,368.728 1068.26,362.232 1065.7,356.92C1063.14,351.608 1059.72,347.32 1055.43,344.056C1051.14,340.792 1046.15,338.424 1040.46,336.952C1034.76,335.48 1028.52,334.744 1021.74,334.744C1016.23,334.744 1010.7,335.32 1005.13,336.472C999.56,337.624 994.536,339.544 990.056,342.232C985.576,344.92 981.928,348.536 979.112,353.08C976.296,357.624 974.888,363.288 974.888,370.072C974.888,376.728 976.232,382.136 978.92,386.296C981.608,390.456 985.16,393.784 989.576,396.28C993.992,398.776 998.952,400.728 1004.46,402.136C1009.96,403.544 1015.46,404.888 1020.97,406.168C1026.22,407.448 1031.69,408.696 1037.38,409.912C1043.08,411.128 1048.26,412.92 1052.94,415.288C1057.61,417.656 1061.45,420.856 1064.46,424.888C1067.46,428.92 1068.97,434.392 1068.97,441.304C1068.97,447.192 1067.66,452.248 1065.03,456.472C1062.41,460.696 1058.98,464.152 1054.76,466.84C1050.54,469.528 1045.77,471.48 1040.46,472.696C1035.14,473.912 1029.8,474.52 1024.42,474.52C1017.13,474.52 1010.44,473.72 1004.36,472.12C998.28,470.52 993.032,467.928 988.616,464.344C984.2,460.76 980.776,456.12 978.344,450.424C975.912,444.728 974.696,437.784 974.696,429.592L970.856,429.592C970.728,438.296 971.976,445.72 974.6,451.864C977.224,458.008 980.936,463.032 985.736,466.936C990.536,470.84 996.232,473.688 1002.82,475.48C1009.42,477.272 1016.62,478.168 1024.42,478.168C1030.31,478.168 1036.14,477.496 1041.9,476.152C1047.66,474.808 1052.84,472.632 1057.45,469.624C1062.06,466.616 1065.77,462.808 1068.58,458.2C1071.4,453.592 1072.81,448.024 1072.81,441.496C1072.81,434.328 1071.56,428.632 1069.06,424.408C1066.57,420.184 1063.21,416.792 1058.98,414.232C1054.76,411.672 1049.8,409.624 1044.1,408.088C1038.41,406.552 1032.36,404.952 1025.96,403.288C1020.07,401.88 1014.31,400.536 1008.68,399.256C1003.05,397.976 998.024,396.184 993.608,393.88C989.192,391.576 985.608,388.568 982.856,384.856C980.104,381.144 978.728,376.216 978.728,370.072C978.728,363.928 980.072,358.84 982.76,354.808C985.448,350.776 988.872,347.544 993.032,345.112C997.192,342.68 1001.83,340.984 1006.95,340.024C1012.07,339.064 1017,338.584 1021.74,338.584C1027.88,338.584 1033.64,339.224 1039.02,340.504C1044.39,341.784 1049.03,343.928 1052.94,346.936C1056.84,349.944 1059.98,353.848 1062.34,358.648C1064.71,363.448 1066.02,369.368 1066.28,376.408Z" style="fill:white;fill-rule:nonzero;"/>
        <path d="M1130.41,341.848L1179.56,341.848L1179.56,475.096L1183.4,475.096L1183.4,341.848L1232.74,341.848L1232.74,338.008L1130.41,338.008L1130.41,341.848Z" style="fill:white;fill-rule:nonzero;"/>
    </g>
</svg>
