<?xml version="1.0" standalone="no"?><!DOCTYPE svg PUBLIC "-//W3C//DTD SVG 1.1//EN" "http://www.w3.org/Graphics/SVG/1.1/DTD/svg11.dtd"><svg width="100%" height="100%" viewBox="0 0 32 32" version="1.1" xmlns="http://www.w3.org/2000/svg" xmlns:xlink="http://www.w3.org/1999/xlink" xml:space="preserve" style="fill-rule:evenodd;clip-rule:evenodd;stroke-linejoin:round;stroke-miterlimit:1.41421;"><g id="Clipboard"><clipPath id="tag1"><path d="M24.3375,3.94654c1.42395,0 2.57829,1.15434 2.57829,2.57829l0,21.8969c0,1.42395 -1.15434,2.57829 -2.57829,2.57829l-16.6749,0c-1.42395,0 -2.57829,-1.15434 -2.57829,-2.57829l0,-21.8969c0,-1.42395 1.15434,-2.57829 2.57829,-2.57829l6.60823,0l-3.6923,0.600024c-0.123498,0 -0.223613,0.100115 -0.223613,0.223613l0,1.53104c0,0.123498 0.100115,0.223613 0.223613,0.223613l10.843,0c0.123498,0 0.223613,-0.100115 0.223613,-0.223613l0,-1.53104c0,-0.123498 -0.100115,-0.223613 -0.223613,-0.223613l-3.65246,-0.600024l6.56843,1.77636e-15Z"/></clipPath><g clip-path="url(#tag1)"><rect x="7.55888" y="5.41213" width="16.8822" height="22.6333" style="fill:none;stroke-width:0.8px;stroke:#5bc0de;"/></g><path d="M24.3375,3.94654c1.42395,0 2.57829,1.15434 2.57829,2.57829l0,21.8969c0,1.42395 -1.15434,2.57829 -2.57829,2.57829l-16.6749,0c-1.42395,0 -2.57829,-1.15434 -2.57829,-2.57829l0,-21.8969c0,-1.42395 1.15434,-2.57829 2.57829,-2.57829l6.60823,0l-3.6923,0.600024c-0.123498,0 -0.223613,0.100115 -0.223613,0.223613l0,1.53104c0,0.123498 0.100115,0.223613 0.223613,0.223613l10.843,0c0.123498,0 0.223613,-0.100115 0.223613,-0.223613l0,-1.53104c0,-0.123498 -0.100115,-0.223613 -0.223613,-0.223613l-3.65246,-0.600024l6.56843,1.77636e-15Z" style="fill:none;stroke-width:0.8px;stroke:#5bc0de;"/><clipPath id="tag2"><path d="M14.2653,3.88872c0.077542,-1.10177 0.597877,-2.84731 1.70002,-2.88805c1.1395,-0.0421176 1.69577,1.90975 1.8431,2.92468"/></clipPath><g clip-path="url(#tag2)"><circle cx="16" cy="2.84591" r="0.64783" style="fill:none;stroke-width:0.8px;stroke:#5bc0de;"/></g><path d="M14.2653,3.88872c0.077542,-1.10177 0.597877,-2.84731 1.70002,-2.88805c1.1395,-0.0421176 1.69577,1.90975 1.8431,2.92468" style="fill:none;stroke-width:0.8px;stroke-linecap:round;stroke:#5bc0de;"/></g></svg>